<svg xmlns="http://www.w3.org/2000/svg" viewBox="0 0 128 128">
  <defs>
    <linearGradient id="cloudNativeGradient" x1="0%" y1="0%" x2="100%" y2="100%">
      <stop offset="0%" style="stop-color:#00d4ff;stop-opacity:1" />
      <stop offset="100%" style="stop-color:#0099cc;stop-opacity:1" />
    </linearGradient>
  </defs>
  <rect width="128" height="128" rx="16" fill="url(#cloudNativeGradient)"/>
  <path d="M30 60 C30 50 38 42 48 42 C50 35 57 30 65 30 C73 30 80 35 82 42 C92 42 100 50 100 60 C100 70 92 78 82 78 L48 78 C38 78 30 70 30 60 Z" fill="white" opacity="0.9"/>
  <rect x="40" y="85" width="12" height="20" rx="2" fill="white" opacity="0.8"/>
  <rect x="58" y="88" width="12" height="17" rx="2" fill="white" opacity="0.8"/>
  <rect x="76" y="82" width="12" height="23" rx="2" fill="white" opacity="0.8"/>
  <circle cx="46" cy="95" r="2" fill="#00d4ff"/>
  <circle cx="64" cy="96" r="2" fill="#00d4ff"/>
  <circle cx="82" cy="93" r="2" fill="#00d4ff"/>
</svg>