<svg xmlns="http://www.w3.org/2000/svg" viewBox="0 0 128 128">
  <defs>
    <linearGradient id="eventDrivenGradient" x1="0%" y1="0%" x2="100%" y2="100%">
      <stop offset="0%" style="stop-color:#ff9800;stop-opacity:1" />
      <stop offset="100%" style="stop-color:#f57c00;stop-opacity:1" />
    </linearGradient>
  </defs>
  <rect width="128" height="128" rx="16" fill="url(#eventDrivenGradient)"/>
  <path d="M20 64 L35 50 L35 58 L50 58 L50 50 L65 64 L50 78 L50 70 L35 70 L35 78 Z" fill="white" opacity="0.9"/>
  <path d="M63 64 L78 50 L78 58 L93 58 L93 50 L108 64 L93 78 L93 70 L78 70 L78 78 Z" fill="white" opacity="0.7"/>
  <circle cx="25" cy="35" r="6" fill="white" opacity="0.8"/>
  <circle cx="64" cy="35" r="6" fill="white" opacity="0.8"/>
  <circle cx="103" cy="35" r="6" fill="white" opacity="0.8"/>
  <circle cx="25" cy="93" r="6" fill="white" opacity="0.8"/>
  <circle cx="64" cy="93" r="6" fill="white" opacity="0.8"/>
  <circle cx="103" cy="93" r="6" fill="white" opacity="0.8"/>
  <path d="M25 41 L25 58 M64 41 L64 58 M103 41 L103 58 M25 70 L25 87 M64 70 L64 87 M103 70 L103 87" stroke="white" stroke-width="1" opacity="0.6"/>
</svg>