<svg xmlns="http://www.w3.org/2000/svg" viewBox="0 0 128 128">
  <defs>
    <linearGradient id="microservicesGradient" x1="0%" y1="0%" x2="100%" y2="100%">
      <stop offset="0%" style="stop-color:#4285f4;stop-opacity:1" />
      <stop offset="100%" style="stop-color:#1a73e8;stop-opacity:1" />
    </linearGradient>
  </defs>
  <rect width="128" height="128" rx="16" fill="url(#microservicesGradient)"/>
  <rect x="20" y="20" width="25" height="25" rx="5" fill="white" opacity="0.9"/>
  <rect x="83" y="20" width="25" height="25" rx="5" fill="white" opacity="0.9"/>
  <rect x="20" y="83" width="25" height="25" rx="5" fill="white" opacity="0.9"/>
  <rect x="83" y="83" width="25" height="25" rx="5" fill="white" opacity="0.9"/>
  <rect x="51" y="51" width="25" height="25" rx="5" fill="white" opacity="1"/>
  <path d="M45 32 L51 58 M76 58 L83 32 M32 45 L58 51 M58 76 L32 83 M76 51 L95 45 M95 83 L76 76" stroke="white" stroke-width="2" opacity="0.7"/>
  <circle cx="32" cy="32" r="3" fill="white"/>
  <circle cx="95" cy="32" r="3" fill="white"/>
  <circle cx="32" cy="95" r="3" fill="white"/>
  <circle cx="95" cy="95" r="3" fill="white"/>
  <circle cx="63" cy="63" r="3" fill="#4285f4"/>
</svg>